<?xml version="1.0" standalone="no"?>
<!DOCTYPE svg PUBLIC "-//W3C//DTD SVG 20010904//EN"
 "http://www.w3.org/TR/2001/REC-SVG-20010904/DTD/svg10.dtd">
<svg version="1.0" xmlns="http://www.w3.org/2000/svg"
 width="700.000000pt" height="700.000000pt" viewBox="0 0 700.000000 700.000000"
 preserveAspectRatio="xMidYMid meet">
<metadata>
Created by potrace 1.14, written by Peter Selinger 2001-2017
</metadata>
<g transform="translate(0.000000,700.000000) scale(0.100000,-0.100000)"
fill="#000000" stroke="none">
<path d="M1000 3500 l0 -2100 550 0 550 0 0 900 0 900 200 0 200 0 0 -900 0
-900 550 0 550 0 0 2100 0 2100 -550 0 -550 0 0 -900 0 -900 -200 0 -200 0 0
900 0 900 -550 0 -550 0 0 -2100z"/>
<path d="M3800 3500 l0 -2100 550 0 550 0 0 844 0 844 33 31 32 31 183 -450
182 -450 600 0 600 0 0 2100 0 2100 -550 0 -550 0 0 -950 0 -950 -250 625
-250 625 -650 0 -650 0 0 -2100z"/>
</g>
</svg>